# xmcd CD database file
#
# Track frame offsets:
#	150
#	30048
#	45013
#	85988
#	108529
#	130739
#	154224
#	169385
#	187185
#	211887
#	230894
#
# Disc length: 3350 seconds
#
# Revision: 0
# Processed by: cddbd v1.5.2PL0 Copyright (c) Steve Scherf et al.
# Submitted via: CDex 1.70beta2
#
DISCID=8c0d140b
DTITLE=Paul Lamb and The King Snakes - Snakes and Ladders
DYEAR=2007
DGENRE=Blues
TTITLE0=Crazy For Me
TTITLE1=Money World
TTITLE2=Adopted Child
TTITLE3=Far Far Away
TTITLE4=The Things I Used To Do
TTITLE5=Sweet Sweet Woman
TTITLE6=You Better Mind
TTITLE7=Easy Rider
TTITLE8=I Got My Mojo Workin'
TTITLE9=Mr. Lamb's Jump
TTITLE10=I Got A Woman
EXTD=YEAR: 2007
EXTT0=
EXTT1=
EXTT2=
EXTT3=
EXTT4=
EXTT5=
EXTT6=
EXTT7=
EXTT8=
EXTT9=
EXTT10=
PLAYORDER=
